<?xml version="1.0" encoding="UTF-8"?>
<svg width="126px" height="20px" viewBox="0 0 126 20" version="1.1" xmlns="http://www.w3.org/2000/svg" xmlns:xlink="http://www.w3.org/1999/xlink">
    <!-- Generator: sketchtool 63.1 (101010) - https://sketch.com -->
    <title>8AF8E9B0-0B0B-4842-A464-3361857ADCE9</title>
    <desc>Created with sketchtool.</desc>
    <g id="Page-1" stroke="none" stroke-width="1" fill="none" fill-rule="evenodd">
        <g id="login" transform="translate(-449.000000, -188.000000)" fill="#202124">
            <g id="Logo" transform="translate(449.000000, 188.000000)">
                <path d="M62.1938665,12.2 C62.1938665,14.4324528 61.4881142,16.2350943 60.0777517,17.6113208 C58.6704344,18.9871698 56.8934918,19.674717 54.7530145,19.674717 C52.5664767,19.674717 50.7685976,18.9920755 49.3597577,17.6271698 C47.9509178,16.2626415 47.2447849,14.4535849 47.2447849,12.2 L47.2447849,3.19849057 L51.6700115,3.19849057 L51.6700115,12.5569811 C51.6700115,13.4886792 51.9608393,14.2362264 52.5394495,14.8007547 C53.1188211,15.3630189 53.8565492,15.645283 54.7530145,15.645283 C55.606084,15.645283 56.3202109,15.3630189 56.8988211,14.8007547 C57.4778121,14.2362264 57.7690205,13.4886792 57.7690205,12.5569811 L57.7690205,3.19849057 L62.1938665,3.19849057 L62.1938665,12.2 Z" id="Fill-2"></path>
                <path d="M77.9056097,3.11762264 L77.9056097,6.98479245 C77.9056097,6.98479245 77.329664,6.87460377 76.2120326,6.85988679 C75.0936399,6.84366038 73.1674767,7.25875472 72.2972773,8.04026415 C71.5093015,8.74479245 71.1183589,9.79083019 71.1183589,11.1772453 L71.1183589,19.2017736 L66.6908483,19.2017736 L66.6908483,3.19837736 L70.7555855,3.19837736 L70.7555855,5.06667925 C71.8709329,3.63686792 74.1046731,2.92328302 75.9626973,2.92328302 C76.5089511,2.92328302 77.4880205,2.98743396 77.9056097,3.11762264" id="Fill-4"></path>
                <path d="M96.2109734,12.2 C96.2109734,14.4324528 95.5052211,16.2350943 94.0960006,17.6113208 C92.6860187,18.9871698 90.9094568,19.674717 88.7697408,19.674717 C86.5835837,19.674717 84.7841819,18.9920755 83.3768647,17.6271698 C81.9665021,16.2626415 81.2630338,14.4535849 81.2630338,12.2 L81.2630338,3.19849057 L85.6871184,3.19849057 L85.6871184,12.5569811 C85.6871184,13.4886792 85.9779462,14.2362264 86.5561758,14.8007547 C87.1355474,15.3630189 87.8736562,15.645283 88.7697408,15.645283 C89.6216683,15.645283 90.3373178,15.3630189 90.9155474,14.8007547 C91.494919,14.2362264 91.7846048,13.4886792 91.7846048,12.5569811 L91.7846048,3.19849057 L96.2109734,3.19849057 L96.2109734,12.2 Z" id="Fill-6"></path>
                <path d="M124.280157,4.61377358 C125.374568,5.79301887 125.920822,7.3590566 125.920822,9.30811321 L125.920822,19.2016981 L121.495595,19.2016981 L121.495595,9.9254717 C121.495595,8.97339623 121.232937,8.21490566 120.708,7.65150943 C120.185728,7.08811321 119.483402,6.80584906 118.61168,6.80584906 C117.737674,6.80584906 117.021263,7.08811321 116.46397,7.65150943 C115.906677,8.21490566 115.627269,8.94018868 115.627269,9.82849057 L115.627269,19.2016981 L111.202042,19.2016981 L111.202042,9.9254717 C111.202042,8.97339623 110.940526,8.21490566 110.417112,7.65150943 C109.891795,7.08811321 109.192514,6.80584906 108.318127,6.80584906 C107.4209,6.80584906 106.699921,7.08811321 106.154048,7.65150943 C105.608175,8.21490566 105.335619,8.97339623 105.335619,9.9254717 L105.335619,19.2016981 L100.910773,19.2016981 L100.910773,3.19830189 L104.975511,3.19830189 L104.975511,4.62849057 C106.133112,3.43792453 107.662242,2.84132075 109.564042,2.84132075 C111.75058,2.84132075 113.355082,3.61226415 114.381353,5.14735849 C115.715964,3.61226415 117.518792,2.84132075 119.79174,2.84132075 C121.692399,2.84132075 123.18803,3.43150943 124.280157,4.61377358" id="Fill-8"></path>
                <path d="M37.5161003,14.3381509 C36.7186079,15.1604151 35.7182211,15.5717358 34.5160822,15.5717358 C33.291484,15.5717358 32.2865293,15.1664528 31.5000761,14.3524906 C30.7128616,13.5404151 30.3215384,12.4955094 30.3215384,11.2177736 C30.3215384,9.93928302 30.7128616,8.88230189 31.5000761,8.04909434 C32.2865293,7.21437736 33.291484,6.7985283 34.5160822,6.7985283 C35.7182211,6.7985283 36.7186079,7.21928302 37.5161003,8.0649434 C38.3124508,8.91060377 38.7121486,9.95966038 38.7121486,11.2177736 C38.7121486,12.4736226 38.3124508,13.5128679 37.5161003,14.3381509 L37.5161003,14.3381509 Z M39.4415021,3.19815094 L39.4415021,4.70909434 C38.6021366,3.87701887 36.8598344,2.79966038 34.5160822,2.79966038 C32.0908677,2.79966038 30.0368012,3.60833962 28.3531215,5.22267925 C26.670203,6.83626415 25.8308375,8.82230189 25.8308375,11.1860755 C25.8308375,13.5683396 26.6652544,15.5664528 28.3394175,17.1804151 C30.0093934,18.7932453 32.0573692,19.5996604 34.4825837,19.5996604 C34.5309281,19.5996604 34.5731819,19.5962642 34.6203843,19.5947547 C36.9093208,19.5630566 38.6158405,18.5098491 39.4415021,17.6913585 L39.4415021,19.2019245 L43.2348254,19.2019245 L43.2348254,3.19815094 L39.4415021,3.19815094 Z" id="Fill-10"></path>
                <polygon id="Fill-12" points="19.3743082 -1.77635684e-14 -1.0658141e-14 -1.77635684e-14 -1.0658141e-14 19.2018868 12.9148097 19.2018868 12.9148097 12.8026415 6.45683384 12.8026415 6.45683384 6.39962264 12.9148097 6.39962264 12.9148097 12.8026415 19.3743082 12.8026415"></polygon>
            </g>
        </g>
    </g>
</svg>