<?xml version="1.0" encoding="UTF-8"?>
<svg width="600px" height="192px" viewBox="0 0 300 192" version="1.1" xmlns="http://www.w3.org/2000/svg" xmlns:xlink="http://www.w3.org/1999/xlink">
    <defs>
        <polygon id="path-1" points="0 0.247292704 30.2758678 0.247292704 30.2758678 29.5895073 0 29.5895073"></polygon>
        <polygon id="path-3" points="0.00447198097 0.435469886 73.6542711 0.435469886 73.6542711 101.356223 0.00447198097 101.356223"></polygon>
    </defs>
    <g id="Page-1" stroke="none" stroke-width="1" fill="none" fill-rule="evenodd">
        <g id="X-aurum-Copy-4" transform="translate(-470.000000, -129.000000)">
            <g id="EmptyState1x1" transform="translate(470.000000, 129.000000)">
                <path d="M119.784655,189.120018 C150.972992,180.079915 300,184.459 300,177.860027 C300,171.261054 235.746252,159.862385 151.682081,159.862385 C67.6179091,159.862385 0,167.964917 0,174.56389 C0,181.162863 88.5963185,198.16012 119.784655,189.120018 Z" id="Oval" fill="#DEE2E6"></path>
                <path d="M89.0661427,166.878626 C87.7744072,169.04666 85.5752336,169.28151 83.2892832,169.108463 C78.592589,168.736823 73.6975477,169.108463 68.9760601,169.108463 L59.1487874,169.108463 C58.6396964,168.501149 58.4033328,167.75787 58.4033328,166.97751 L58.4033328,166.965149 C58.4033328,166.3463 58.5520931,165.714265 58.8628369,165.156394 L80.7173824,165.156394 C82.046308,165.156394 83.4256469,165.243742 84.6430022,164.735313 C85.8735807,164.227707 86.8297791,163.174591 86.7430022,161.898162 C86.3330849,155.518488 85.9355642,149.151175 85.5380436,142.771501 L85.2768865,138.60848 C85.1653163,136.750282 84.9785394,134.719862 83.6496138,133.38163 C82.0587047,131.783003 79.4992006,131.745922 77.2256469,131.807725 C74.3190353,131.881888 71.1504402,132.340875 68.2677956,132.044222 C66.3173824,131.844806 63.5843245,131.745922 62.0438287,130.408514 C60.7636634,129.281235 60.5025064,127.534282 60.4529196,125.935656 C60.4033328,124.02884 60.2793659,122.121201 60.1421758,120.212737 C59.8198617,115.91375 59.4967212,111.627948 59.1735807,107.328961 C58.5272998,98.6576473 57.8562254,89.986334 57.2107708,81.3150207 C57.1107708,79.9026258 56.9744072,78.2430207 56.2785394,76.9295099 C56.0058122,76.3963597 55.6322584,75.9258361 55.1355642,75.5418361 C54.0430022,74.699673 52.5512667,74.5381623 51.1479609,74.4277417 C43.2454816,73.7709863 35.4430022,73.2131151 27.4917626,73.5600335 C25.7644898,73.6341966 23.9264733,73.7709863 22.5347378,74.7746601 C20.9322584,75.9134756 20.5223411,77.8087546 20.8942419,79.6051494 C21.353746,81.7855443 21.6529196,84.0030207 21.9628369,86.2204971 C22.6091179,91.1259735 23.2430022,96.0314498 23.83887,100.949287 C24.323994,104.926076 24.7834981,108.902866 25.2182088,112.891192 C25.6033328,116.409819 25.516556,119.964703 26.1248204,123.421527 C26.2744072,124.375759 26.4727543,125.341527 27.007465,126.172154 C28.2868039,128.215759 30.846308,127.646351 32.946308,127.583725 C35.4677956,127.509561 38.0025064,127.435398 40.5248204,127.361235 C43.9661427,127.249167 46.43887,127.162643 48.9611841,129.838282 C50.5016799,131.497888 51.9430022,133.542317 52.0297791,135.785338 C52.153746,138.52278 52.5016799,141.272583 52.6140766,144.02321 C52.8124237,149.54836 52.7008535,155.060325 52.5512667,160.585476 C52.4768865,162.802952 52.3901097,165.131673 51.2099444,167.027776 C49.8058122,169.257613 47.346308,170.037149 44.8115973,170.235742 C39.431432,170.644463 33.8653163,170.260463 28.4603576,170.260463 L18.2983741,170.260463 C17.9248204,169.962986 17.6768865,169.566626 17.5644898,169.120823 C17.3289526,168.27866 17.5396964,167.312068 18.2231675,166.74266 L39.6306055,166.74266 C41.4810188,166.74266 43.7058122,166.766557 45.531432,166.445184 C46.6992006,166.246591 47.7677956,165.553579 48.4016799,164.586986 C49.4578783,162.976823 49.1719279,160.400068 49.1967212,158.565767 C49.2339113,156.150523 49.2587047,153.735278 49.2223411,151.31921 C49.1595312,146.400549 48.8983741,141.483536 48.153746,136.626677 C47.9793659,135.425235 47.7553989,134.211433 47.1347378,133.170677 C45.8545725,131.07763 43.4818452,131.151793 41.2826717,131.126248 C38.5744072,131.114712 35.8653163,131.089167 33.1570518,131.064446 C29.5917626,131.040549 26.2992006,131.473167 23.9140766,128.388806 C22.5099444,126.580875 22.7950683,124.511725 22.5843245,122.393956 C21.6768865,113.846248 20.5958948,105.310076 19.316556,96.8126344 C18.670275,92.5136473 17.9744072,88.2278447 17.2421758,83.9412181 C16.6454816,80.4728576 15.353746,76.619673 17.2793659,73.3243597 C18.000027,72.0858361 19.0801923,71.0574413 20.3975477,70.4385915 C22.385151,69.4967202 24.6958948,69.4843597 26.9082915,69.5090807 C31.4430022,69.5708833 47.7182088,69.658231 51.2595312,70.1773726 C52.1041593,70.3018018 52.9363907,70.450128 53.7818452,70.6487202 C57.5834981,71.5526859 59.9686221,74.3774756 61.0124237,78.0065228 C62.1801923,82.0574756 61.8942419,86.5674155 62.1306055,90.7419735 C62.3785394,95.2758104 62.6396964,99.8228318 62.8884568,104.356669 C63.2363907,110.6869 62.6396964,117.078935 63.5223411,123.384446 C63.6834981,124.585888 63.9198617,125.825235 64.6529196,126.791828 C65.9818452,128.562677 67.8950683,127.905922 69.7834981,127.782317 C73.9834981,127.534282 78.2198617,127.633167 82.4066386,128.092154 C83.5380436,128.215759 84.7058122,128.364909 85.7115973,128.872514 C86.7306055,129.380119 87.4264733,130.234643 87.6124237,131.32484 C89.3892832,141.34757 89.6504402,151.554059 89.8983741,161.712755 C89.9363907,163.484428 89.9611841,165.354162 89.0661427,166.878626" id="Fill-1" fill="#6C757D"></path>
                <g id="Group-5" transform="translate(11.055564, 78.132188)">
                    <mask id="mask-2" fill="white">
                        <use xlink:href="#path-1"></use>
                    </mask>
                    <g id="Clip-4"></g>
                    <polygon id="Fill-3" fill="#005A11" mask="url(#mask-2)" points="4.28247934 0.247292704 -0.000165289256 0.247292704 4.28247934 28.8017305 30.2758678 29.5895073"></polygon>
                </g>
                <path d="M67.3239113,106.115735 C61.4470518,106.994979 55.5082088,107.503409 49.5445725,107.664095 C46.0660601,107.762979 42.575151,107.738258 39.0958122,107.602293 C32.0635807,107.341898 25.043746,106.610979 18.0991179,105.446619 C17.5024237,96.3904816 16.5834155,87.3598893 15.3412667,78.3787391 L45.6685394,80.0886104 L59.0743245,80.8442498 L66.0321758,81.2406104 L67.3239113,106.115735 Z" id="Fill-6" fill="#008F36"></path>
                <path d="M20.3887874,122.565108 L37.6367212,122.380525 L41.371432,130.471718 L93.571432,130.471718 C93.7920931,125.000954 91.1648204,120.36164 87.8458122,120.36164 L19.8606882,120.36164 L20.3887874,122.565108 Z" id="Fill-8" fill="#008F36"></path>
                <polygon id="Fill-10" fill="#11BC51" points="92.1059774 125.464473 89.2464733 121.176198 42.3729196 121.551134 41.9530849 127.200713"></polygon>
                <path d="M19.8609361,120.361723 L20.8047378,124.301431 L33.7063907,124.301431 C36.4972998,124.301431 37.2006055,124.704384 39.5411014,127.961791 L41.3716799,130.4718 L41.6493659,126.850993 C40.7361427,123.425482 38.6568039,121.035783 34.6444072,120.361723 L19.8609361,120.361723 Z" id="Fill-12" fill="#005A11"></path>
                <path d="M59.0743245,80.8443322 C55.9429196,89.862564 52.8991179,98.7819116 49.5445725,107.664178 C46.0660601,107.763062 42.575151,107.738341 39.0958122,107.602375 C41.282589,98.4226327 43.4693659,89.2552507 45.6685394,80.0886928 L59.0743245,80.8443322 Z" id="Fill-14" fill="#11BC51"></path>
                <polygon id="Fill-16" fill="#6C757D" points="89.247713 95.0766413 205.516308 94.8080061 205.336143 100.022495 90.0815973 100.288658"></polygon>
                <polygon id="Fill-18" fill="#006928" points="207.964986 95.156243 84.5558948 95.4413589 83.8806882 89.4242601 208.612093 89.1358481"></polygon>
                <polygon id="Fill-24" fill="#005A11" points="187.545977 89.1844662 186.854242 95.204861 150.374903 95.2889125 149.021184 89.2734619"></polygon>
                <polygon id="Fill-26" fill="#4C535A" points="148.937465 149.835453 144.841597 149.845342 143.628374 100.165136 149.919283 100.150303"></polygon>
                <polygon id="Fill-28" fill="#26292D" points="117.52606 168.494557 122.540936 152.326179 176.350853 152.91454 175.448374 154.1646 124.594655 152.876634 118.431845 168.492909"></polygon>
                <polygon id="Fill-30" fill="#328B8A" points="179.012754 149.766234 183.917713 168.341616 182.582176 168.344913 178.303663 152.197136"></polygon>
                <polygon id="Fill-32" fill="#6C757D" points="179.012754 149.766234 119.532589 149.903848 115.985482 168.498183 118.431763 168.493239 124.594572 152.87614 175.448291 154.16493 181.057382 168.348209 183.917713 168.341616"></polygon>
                <polygon id="Fill-34" fill="#6C757D" points="140.931267 169.772387 138.546969 169.778155 137.453581 150.152954 141.93292 150.143065"></polygon>
                <polygon id="Fill-36" fill="#4C535A" points="140.267878 151.23969 139.976969 169.774694 140.931515 169.772222 141.77201 153.312137 146.89763 153.44151 146.913333 149.84048 140.694325 150.145373"></polygon>
                <polygon id="Fill-38" fill="#2F3338" points="137.606887 167.593228 141.592837 167.58334 142.862258 170.432027 136.844903 170.446035"></polygon>
                <g id="Group-42" transform="translate(202.791101, 69.891845)">
                    <mask id="mask-4" fill="white">
                        <use xlink:href="#path-3"></use>
                    </mask>
                    <g id="Clip-41"></g>
                    <path d="M0.850413223,97.8108155 C2.14214876,99.9788498 4.34132231,100.2137 6.62727273,100.040652 C11.3239669,99.6690129 16.2190083,100.040652 20.9404959,100.040652 L30.7677686,100.040652 C31.2768595,99.4333391 31.5132231,98.6900601 31.5132231,97.9096996 L31.5132231,97.8973391 C31.5132231,97.2784893 31.3644628,96.6464549 31.053719,96.0885837 L9.19917355,96.0885837 C7.87024793,96.0885837 6.49090909,96.1759313 5.27355372,95.6675021 C4.04297521,95.159897 3.08677686,94.1067811 3.17355372,92.8303519 C3.58347107,86.4506781 3.98099174,80.0833648 4.37933884,73.703691 L4.63966942,69.5406695 C4.75123967,67.6824721 4.93801653,65.6520515 6.26694215,64.3138197 C7.85785124,62.7151931 10.4173554,62.6781116 12.6909091,62.7399142 C15.5975207,62.8140773 18.7661157,63.2730644 21.6487603,62.976412 C23.5991736,62.7769957 26.3322314,62.6781116 27.8727273,61.3407039 C29.1528926,60.2134249 29.4140496,58.4664721 29.4636364,56.8678455 C29.5132231,54.96103 29.6371901,53.0533906 29.7743802,51.144927 C30.0966942,46.8459399 30.4198347,42.5601373 30.7429752,38.2611502 C31.3892562,29.5898369 32.0603306,20.9185236 32.7057851,12.2472103 C32.8057851,10.8348155 32.9421488,9.1752103 33.6380165,7.86169957 C33.9107438,7.32854936 34.2842975,6.85802575 34.7809917,6.47402575 C35.8743802,5.63186266 37.3652893,5.47035193 38.768595,5.35993133 C46.6710744,4.70317597 54.4735537,4.14530472 62.4247934,4.49222318 C64.1520661,4.56638627 65.9909091,4.70317597 67.3818182,5.70684979 C68.985124,6.84566524 69.3950413,8.74094421 69.022314,10.5373391 C68.5628099,12.7177339 68.2644628,14.9352103 67.953719,17.1526867 C67.307438,22.0581631 66.6735537,26.9636395 66.077686,31.8814764 C65.592562,35.8582661 65.1330579,39.8350558 64.6983471,43.823382 C64.3132231,47.3420086 64.4008264,50.8968927 63.7917355,54.3537167 C63.6429752,55.3079485 63.4438017,56.2737167 62.9090909,57.1043433 C61.6297521,59.1479485 59.0702479,58.5785408 56.9702479,58.5159142 C54.4487603,58.4417511 51.9140496,58.367588 49.3917355,58.2934249 C45.9504132,58.1813562 43.477686,58.0948326 40.9553719,60.7704721 C39.4157025,62.4300773 37.9735537,64.4745064 37.8867769,66.7175279 C37.7628099,69.45497 37.414876,72.2047725 37.3024793,74.9553991 C37.1041322,80.4805494 37.2157025,85.992515 37.3652893,91.5176652 C37.4396694,93.7351416 37.5264463,96.0638627 38.707438,97.9599657 C40.1107438,100.189803 42.5710744,100.969339 45.1057851,101.167931 C50.485124,101.576652 56.0512397,101.192652 61.4561983,101.192652 L71.6181818,101.192652 C71.9917355,100.895176 72.2396694,100.498815 72.3520661,100.053013 C72.5876033,99.2108498 72.3768595,98.2442575 71.6933884,97.6748498 L50.2859504,97.6748498 C48.4355372,97.6748498 46.2115702,97.6987468 44.385124,97.3773734 C43.2173554,97.1787811 42.1487603,96.4857682 41.514876,95.519176 C40.4586777,93.9090129 40.7446281,91.3322575 40.7198347,89.4979571 C40.6826446,87.0827124 40.6578512,84.6674678 40.6950413,82.2513991 C40.7570248,77.3327382 41.0181818,72.4157253 41.7628099,67.558867 C41.9371901,66.3574249 42.161157,65.1436223 42.7818182,64.102867 C44.0619835,62.0098197 46.4347107,62.0839828 48.6338843,62.0584378 C51.3421488,62.0469013 54.0512397,62.0213562 56.7595041,61.9966352 C60.3247934,61.9727382 63.6173554,62.4053562 66.0024793,59.3209957 C67.4066116,57.5130644 67.1214876,55.4439142 67.3322314,53.3261459 C68.2396694,44.7784378 69.3206612,36.2422661 70.6,27.744824 C71.246281,23.4458369 71.9421488,19.1600343 72.6752066,14.8734077 C73.2710744,11.4050472 74.5628099,7.55186266 72.6371901,4.25654936 C71.9165289,3.01802575 70.8363636,1.9896309 69.5190083,1.37078112 C67.531405,0.428909871 65.2206612,0.416549356 63.0082645,0.441270386 C58.4743802,0.503072961 42.1983471,0.590420601 38.6570248,1.10956223 C37.8123967,1.23399142 36.9801653,1.3823176 36.1347107,1.58090987 C32.3330579,2.48487554 29.9479339,5.30966524 28.9041322,8.93871245 C27.7363636,12.9896652 28.022314,17.4996052 27.7859504,21.6741631 C27.5380165,26.208 27.2768595,30.7550215 27.0280992,35.2888584 C26.6801653,41.6190901 27.2768595,48.0111245 26.3942149,54.3166352 C26.2330579,55.5180773 25.9966942,56.7574249 25.2644628,57.7240172 C23.9347107,59.494867 22.0214876,58.8381116 20.1330579,58.7145064 C15.9330579,58.4664721 11.6966942,58.5653562 7.50991736,59.0243433 C6.3785124,59.1479485 5.2107438,59.2970987 4.20495868,59.8047039 C3.18595041,60.312309 2.49008264,61.1668326 2.30413223,62.25703 C0.527272727,72.2797597 0.266115702,82.4862489 0.0181818182,92.6449442 C-0.0190082645,94.416618 -0.0446280992,96.2863519 0.850413223,97.8108155" id="Fill-40" fill="#6C757D" mask="url(#mask-4)"></path>
                </g>
                <polygon id="Fill-43" fill="#005A11" points="277.369531 79.2035151 281.652176 79.2035151 277.369531 107.757953 251.376143 108.54573"></polygon>
                <path d="M225.383746,106.939769 C231.260606,107.819014 237.199449,108.327443 243.163085,108.48813 C246.641597,108.587014 250.132506,108.562293 253.611845,108.426327 C260.644077,108.165932 267.663911,107.435014 274.608539,106.270653 C275.205234,97.2145159 276.124242,88.1839237 277.366391,79.2027735 L247.039118,80.9126447 L233.633333,81.6682842 L226.675482,82.0646447 L225.383746,106.939769 Z" id="Fill-45" fill="#008F36"></path>
                <path d="M272.31887,123.389143 L255.071763,123.204559 L251.336225,131.295752 L199.136225,131.295752 C198.915564,125.824988 201.542837,121.185675 204.862672,121.185675 L272.846969,121.185675 L272.31887,123.389143 Z" id="Fill-47" fill="#008F36"></path>
                <polygon id="Fill-49" fill="#11BC51" points="200.60168 126.288507 203.461184 122.000233 250.334738 122.375168 250.754572 128.024748"></polygon>
                <path d="M272.847134,121.185757 L271.902506,125.125465 L259.000853,125.125465 C256.209944,125.125465 255.506639,125.528418 253.166143,128.785826 L251.336391,131.295834 L251.058705,127.675028 C251.971101,124.249517 254.05044,121.859817 258.062837,121.185757 L272.847134,121.185757 Z" id="Fill-51" fill="#005A11"></path>
                <path d="M233.633663,81.6683666 C236.764242,90.6865983 239.808044,99.605946 243.162589,108.488212 C246.641928,108.587096 250.132837,108.562375 253.611349,108.42641 C251.424572,99.246667 249.238622,90.079285 247.039449,80.9127271 L233.633663,81.6683666 Z" id="Fill-53" fill="#11BC51"></path>
                <polygon id="Fill-55" fill="#2F3338" points="119.784655 166.208274 115.686308 166.218162 114.43011 169.072617 119.362341 169.061081"></polygon>
                <polygon id="Fill-57" fill="#2F3338" points="179.908209 166.069919 184.007382 166.06003 185.276804 168.908717 180.343746 168.920253"></polygon>
                <path d="M139.629035,44.1064095 C135.054655,42.0446756 131.048044,38.7501863 128.838126,34.9110104 C125.252176,28.6780147 125.720771,20.6387357 129.76292,14.7106327 C134.329862,8.01288161 143.314986,4.3310962 151.718291,5.28944813 C161.315812,6.38376573 167.919118,13.2965898 169.216639,22.0354739 C170.626556,31.5341177 165.845564,42.1839374 155.585234,45.4438172 C150.241432,47.142152 144.629035,46.3584953 139.629035,44.1064095" id="Fill-59" fill="#DEE2E6"></path>
                <path d="M138.518539,38.9666601 C133.944159,36.9049262 129.937548,33.610437 127.72763,29.771261 C124.14168,23.5390893 124.610275,15.4989863 128.652424,9.57088332 C133.219366,2.87313225 142.20449,-0.808653158 150.607796,0.150522807 C160.205316,1.24401637 166.808622,8.1568404 168.106143,16.8957245 C169.51606,26.3943683 164.735068,37.044188 154.473911,40.3048919 C149.130936,42.0024026 143.517713,41.21957 138.518539,38.9666601" id="Fill-61" fill="#FCC530"></path>
                <path d="M139.506391,36.7833812 C135.476639,34.9672095 131.94606,32.0641365 129.998953,28.6822996 C126.838622,23.1909348 127.252672,16.1058876 130.813002,10.883982 C134.837796,4.98224813 142.754325,1.73884899 150.158457,2.58266015 C158.614655,3.54678032 164.432837,9.63886616 165.574986,17.3369949 C166.817961,25.7067116 162.605564,35.0899906 153.565068,37.9625743 C148.856804,39.4581966 143.911349,38.7684799 139.506391,36.7833812" id="Fill-63" fill="#FFFFFF"></path>
                <path d="M163.69887,21.150873 C163.706308,20.5105983 163.780688,20.1455511 163.788126,19.5044524 C162.352589,19.6049846 160.917052,19.7046928 159.48151,19.805225 C159.480688,20.2188902 159.593911,20.6440919 159.592258,21.0577571 C160.853415,21.1352164 162.437713,21.0725898 163.69887,21.150873 M129.334407,19.6156971 C129.270771,20.2534996 129.164159,20.6103065 129.100523,21.2481091 C130.539366,21.2720061 131.978209,21.2975511 133.417052,21.3214481 C133.454242,20.909431 133.379035,20.4768129 133.417052,20.0647958 C132.168291,19.8769159 130.583994,19.8019288 129.334407,19.6156971 M148.749283,32.7648129 C148.445977,32.6519202 148.038539,32.765637 147.73606,32.6527443 C147.58482,34.2637314 147.434407,35.8747185 147.283994,37.4857056 C147.700523,37.5203151 148.217878,37.4684009 148.634407,37.5030104 C148.655895,35.9661863 148.726969,34.3008129 148.749283,32.7648129 M147.234407,11.3011906 C147.045977,8.86534512 146.857548,6.43032367 146.668291,3.99530221 C147.441845,4.206255 148.41292,4.1296198 149.206308,4.01013482 C148.918705,6.318255 148.564986,8.96587731 148.589779,11.2913022 C148.302176,11.2187872 147.52201,11.3737056 147.234407,11.3011906" id="Fill-65" fill="#FCC530"></path>
                <path d="M146.99201,21.0318001 C146.898622,20.2778086 147.749035,19.0277486 148.053168,18.4171391 C148.526721,17.4645554 149.085399,16.5531735 149.718457,15.6978258 C150.351515,14.8424782 151.059779,14.0423408 151.832506,13.3089503 C152.138291,13.0197142 154.198622,11.6930189 154.214325,11.4095511 C153.999449,15.2792164 152.055647,18.8538773 149.155647,21.3795425 C148.820936,21.6696026 148.409366,21.9209331 147.966391,21.895388 C147.549035,21.871491 147.160606,21.5764868 147.025895,21.1825983 C147.009366,21.1348044 146.998622,21.0837142 146.99201,21.0318001" id="Fill-67" fill="#FCC530"></path>
                <path d="M155.863829,30.7142035 C151.709283,28.853534 148.352258,25.2928816 146.7473,21.0433365 C147.354738,19.9720919 148.291101,19.2823752 149.366308,18.679182 C151.667134,22.0964524 154.342341,26.886564 155.863829,30.7142035" id="Fill-69" fill="#FCC530"></path>
            </g>
        </g>
    </g>
</svg>