<?xml version="1.0" encoding="UTF-8"?>
<svg width="86px" height="90px" viewBox="0 0 86 90" version="1.1" xmlns="http://www.w3.org/2000/svg" xmlns:xlink="http://www.w3.org/1999/xlink">
    <!-- Generator: sketchtool 63.1 (101010) - https://sketch.com -->
    <title>D6943E8C-BFE6-4E59-8A5E-7BAF3048D006</title>
    <desc>Created with sketchtool.</desc>
    <g id="Page-1" stroke="none" stroke-width="1" fill="none" fill-rule="evenodd">
        <g id="login" transform="translate(-469.000000, -248.000000)">
            <g id="interview" transform="translate(469.000000, 248.000000)">
                <g id="Group" transform="translate(4.000000, 14.000000)" fill="#FCC530" fill-rule="nonzero">
                    <path d="M5.59292035,0 L5.59292035,0 C2.50405531,0 0,2.58681944 0,5.77777778 L0,7.22222222 C0,10.4131806 2.50405531,13 5.59292035,13 L5.59292035,13 C8.6817854,13 11.1858407,10.4131806 11.1858407,7.22222222 L11.1858407,5.77777778 C11.1858407,2.58681944 8.6817854,0 5.59292035,0 Z" id="Path"></path>
                    <path d="M73.4070796,0 L73.4070796,0 C76.4959447,0 79,2.58681944 79,5.77777778 L79,7.22222222 C79,10.4131806 76.4959447,13 73.4070796,13 L73.4070796,13 C70.3182146,13 67.8141593,10.4131806 67.8141593,7.22222222 L67.8141593,5.77777778 C67.8141593,2.58681944 70.3182146,0 73.4070796,0 Z" id="Path"></path>
                </g>
                <g id="Group" transform="translate(0.000000, 53.000000)" fill="#6C757D" fill-rule="nonzero">
                    <path d="M16.7804878,0 L24.6026423,0 C28.2952236,0 31.2886179,3.03830645 31.2886179,6.78629032 L31.2886179,29.1854839 C31.2886179,31.2921613 29.6060244,33 27.5304878,33 L27.5304878,33 C25.4549512,33 23.7723577,31.2921613 23.7723577,29.1854839 L23.7723577,10.4677419 L8.1862561,10.4677419 C3.66513821,10.4677419 0,6.7476129 0,2.15866129 L0,0" id="Path"></path>
                    <path d="M69.2195122,0 L61.3973577,0 C57.7047764,0 54.7113821,3.03830645 54.7113821,6.78629032 L54.7113821,29.1854839 C54.7113821,31.2921613 56.3939756,33 58.4695122,33 L58.4695122,33 C60.5450488,33 62.2276423,31.2921613 62.2276423,29.1854839 L62.2276423,10.4677419 L77.8137439,10.4677419 C82.3348618,10.4677419 86,6.7476129 86,2.15866129 L86,0" id="Path"></path>
                </g>
                <path d="M56.7222222,54 L29.2777778,54 C26.3628611,54 24,51.53765 24,48.5 L24,48.5 C24,45.46235 26.3628611,43 29.2777778,43 L56.7222222,43 C59.6371389,43 62,45.46235 62,48.5 L62,48.5 C62,51.53765 59.6371389,54 56.7222222,54 Z" id="Path" fill="#DEE2E6" fill-rule="nonzero"></path>
                <g id="Group" transform="translate(27.000000, -0.000000)" fill-rule="nonzero">
                    <rect id="Rectangle" fill="#DEE2E6" x="12.5217391" y="53.4878049" width="6.95652174" height="32.5121951"></rect>
                    <path d="M28.5217391,0 L3.47826087,0 C1.55721739,0 0,1.56513008 0,3.49593496 L0,20.6260163 C0,22.5568211 1.55721739,24.1219512 3.47826087,24.1219512 L10.2608696,24.1219512 L16,29.8902439 L21.7391304,24.1219512 L28.5217391,24.1219512 C30.4427826,24.1219512 32,22.5568211 32,20.6260163 L32,3.49593496 C32,1.56513008 30.4427826,0 28.5217391,0 Z" id="Path" fill="#228BE6"></path>
                </g>
                <path d="M35,13 C35.526,13 36.042,12.786 36.4138,12.414 C36.7858,12.042 37,11.526 37,11 C37,10.474 36.786,9.958 36.4138,9.586 C36.042,9.212 35.526,9 35,9 C34.474,9 33.958,9.212 33.586,9.586 C33.214,9.958 33,10.474 33,11 C33,11.526 33.2138,12.042 33.586,12.414 C33.958,12.786 34.474,13 35,13 Z" id="Path" fill="#FFFFFF" fill-rule="nonzero"></path>
                <path d="M43,13 C43.526,13 44.042,12.786 44.4138,12.414 C44.7858,12.042 45,11.526 45,11 C45,10.474 44.786,9.958 44.4138,9.586 C44.042,9.2142 43.526,9 43,9 C42.474,9 41.958,9.214 41.586,9.586 C41.214,9.958 41,10.474 41,11 C41,11.526 41.2138,12.042 41.586,12.414 C41.958,12.786 42.474,13 43,13 Z" id="Path" fill="#FFFFFF" fill-rule="nonzero"></path>
                <path d="M51,13 C51.526,13 52.042,12.786 52.4138,12.414 C52.7858,12.042 53,11.526 53,11 C53,10.474 52.786,9.958 52.4138,9.586 C52.042,9.212 51.526,9 51,9 C50.474,9 49.958,9.212 49.586,9.586 C49.214,9.958 49,10.474 49,11 C49,11.526 49.2138,12.042 49.586,12.414 C49.958,12.786 50.474,13 51,13 Z" id="Path" fill="#FFFFFF" fill-rule="nonzero"></path>
                <rect id="Rectangle" fill="#DEE2E6" x="11" y="86" width="65" height="4" rx="2"></rect>
                <path d="M9,27 C13.9705627,27 18,31.0294373 18,36 L18,36 L18,36 L27.5,36 C29.4329966,36 31,37.5670034 31,39.5 C31,41.4329966 29.4329966,43 27.5,43 L18,43 L18,43 L18,53 L0,53 L0,36 C-6.08718376e-16,31.0294373 4.02943725,27 9,27 Z" id="Rectangle" fill="#02883C"></path>
                <path d="M64,27 C68.9705627,27 73,31.0294373 73,36 L73,36 L73,36 L82.5,36 C84.4329966,36 86,37.5670034 86,39.5 C86,41.4329966 84.4329966,43 82.5,43 L73,43 L73,43 L73,53 L55,53 L55,36 C55,31.0294373 59.0294373,27 64,27 Z" id="Rectangle-Copy" fill="#02883C" transform="translate(70.500000, 40.000000) scale(-1, 1) translate(-70.500000, -40.000000) "></path>
            </g>
        </g>
    </g>
</svg>